<svg width="406" height="250" viewBox="0 0 406 250" fill="none" xmlns="http://www.w3.org/2000/svg">
<g clip-path="url(#clip0_1118_842)">
<path opacity="0.1" d="M16.1786 124.167C0.615101 208.125 85.1925 274.861 164.079 214.051C302.083 107.685 233.766 149.63 307.867 162.037C381.968 174.444 388.612 50.6019 329.122 52.1991C269.632 53.7963 251.351 103.148 189.189 57.6852C127.028 12.2222 29.1637 54.213 16.1786 124.167Z" fill="#2A94F4"/>
<path d="M177.482 250C230.453 250 273.395 207.208 273.395 154.421C273.395 101.635 230.453 58.8426 177.482 58.8426C124.51 58.8426 81.5684 101.635 81.5684 154.421C81.5684 207.208 124.51 250 177.482 250Z" fill="#CCE9FF"/>
<path d="M71.0455 133.634C78.9482 133.634 85.3547 127.25 85.3547 119.375C85.3547 111.5 78.9482 105.116 71.0455 105.116C63.1428 105.116 56.7363 111.5 56.7363 119.375C56.7363 127.25 63.1428 133.634 71.0455 133.634Z" fill="#F0932B"/>
<path d="M79.9887 93.7269C84.171 93.7269 87.5614 90.3483 87.5614 86.1806C87.5614 82.0129 84.171 78.6343 79.9887 78.6343C75.8064 78.6343 72.416 82.0129 72.416 86.1806C72.416 90.3483 75.8064 93.7269 79.9887 93.7269Z" fill="#1855AB"/>
<path d="M95.1572 111.065C96.5427 111.065 97.6659 109.946 97.6659 108.565C97.6659 107.184 96.5427 106.065 95.1572 106.065C93.7716 106.065 92.6484 107.184 92.6484 108.565C92.6484 109.946 93.7716 111.065 95.1572 111.065Z" fill="#F0932B"/>
<path d="M137.83 61.3194C137.83 61.3194 135.414 41.9444 141.5 33.1018C149.445 21.5972 171.977 18.3796 182.732 24.7222C194.625 31.7361 204.103 49.8379 199.945 65.6944C217.622 70.7639 221.85 90.787 209.422 95.9259L220.061 118.634C226.682 132.755 219.922 149.63 204.73 156.921L177.529 169.977C177.529 169.977 127.331 177.847 117.389 154.676C107.446 131.505 126.912 114.606 126.912 114.606C126.912 114.606 111.024 97.0139 118.596 79.8611C126.192 62.7083 137.83 61.3194 137.83 61.3194Z" fill="#F0932B"/>
<path d="M215.02 127.708C215.02 127.708 260.642 134.907 273 134.375C282.687 134.907 298.645 82.0602 300.039 78.8194C307.774 73.9815 309.702 67.3611 309.586 63.7037C309.47 60.0463 299.598 56.9676 298.645 58.8194C300.271 53.9815 300.643 52.4537 301.084 50.787C302.014 47.338 299.366 44.7222 295.579 57.7083C291.839 70.5093 292.211 68.4028 291.305 72.9167C285.196 84.6065 269.446 111.875 268.378 115.995C247.959 115.509 213.371 107.593 213.371 107.593L215.02 127.708ZM123.66 115.37C123.66 115.37 102.034 155.81 97.8292 167.106C93.648 175.509 137.087 214.213 139.526 217.014C141.035 226.204 145.031 229.375 148.422 231.019C151.814 232.639 158.388 225.301 157.064 223.588C160.896 227.338 162.151 228.38 163.498 229.583C166.309 232.037 169.724 230.926 159.247 221.389C148.91 211.968 150.722 213.31 146.912 210.347C138.504 199.352 119.456 172.361 116.087 169.444C124.287 151.458 144.729 124.306 144.729 124.306L123.66 115.37Z" fill="#FFE3CA"/>
<path d="M173.208 250L185.821 195.463L207.308 208.287C207.308 208.287 209.051 223.981 211.281 244.329C211.281 244.329 194.463 250.394 173.208 250Z" fill="#F0932B"/>
<path d="M194.88 248.333C198.318 227.639 201.059 210.972 201.059 210.972C201.059 210.972 142.266 202.824 142.057 218.843C141.988 223.75 142.568 233.194 143.939 243.981C174.857 253.889 194.88 248.333 194.88 248.333Z" fill="#9CB6DB"/>
<path d="M195.322 142.847C193.58 146.875 206.797 202.801 209.004 215.694C209.004 215.694 208.725 215.648 208.191 215.556C202.453 214.699 167.354 210.093 138.991 221.875L136.39 142.87L136.273 139.931C136.273 139.931 136.273 136.944 136.552 132.384V132.338C137.203 122.94 139.154 107.083 145.217 96.8982C148.353 91.6204 152.511 87.8472 158.202 87.2917C175.833 85.5556 175.74 92.7546 192.116 96.7824L218.691 103.356C218.691 103.356 215.717 123.889 218.691 130H200.247C200.247 129.977 197.041 138.773 195.322 142.847Z" fill="#1855AB"/>
<path d="M185.194 34.5833C185.194 34.5833 201.362 58.75 192.883 70.5555C186.542 79.3981 175.903 84.0278 175.903 84.0278V96.7592C175.903 96.7592 174.625 97.8935 172.395 98.0092C168.516 98.2176 158.202 92.0139 158.202 92.0139V41.875L185.194 34.5833Z" fill="#FFE3CA"/>
<path d="M136.343 146.111C136.343 146.111 160.734 117.94 156.854 104.375C152.975 90.8102 134.531 95.4629 124.218 111.088C113.904 126.713 109.815 132.06 109.815 132.06C109.815 132.06 120.431 146.366 136.343 146.111Z" fill="#1855AB"/>
<path d="M185.148 32.2916C185.148 32.2916 186.402 57.4537 174.23 63.5416C162.058 69.6296 171.257 84.6296 159.666 95.8333C156.228 99.1435 151.117 98.5879 147.191 97.4305C141.57 95.7638 135.136 96.9676 131.21 101.018C130.838 101.412 130.49 101.829 130.211 102.245C115.158 92.3379 153.301 37.2685 153.301 37.2685L185.148 32.2916Z" fill="#F0932B"/>
<path d="M229.353 169.861C224.08 177.986 221.014 187.662 221.014 198.056C221.014 226.736 244.359 250 273.14 250C301.921 250 325.266 226.736 325.266 198.056C325.266 169.375 301.921 146.111 273.14 146.111C260.434 146.111 248.773 150.648 239.736 158.194L222.059 153.542L229.353 169.861ZM290.539 14.2593C290.539 22.1296 284.127 32.2917 276.229 32.2917C268.331 32.2917 261.92 22.1296 261.92 14.2593C261.92 6.38889 268.308 0 276.229 0C284.151 0 290.539 6.38889 290.539 14.2593Z" fill="#1855AB"/>
<path d="M276.67 38.75C275.207 38.75 273.836 37.7315 272.628 35.7176C271.769 34.2824 272.419 29.9537 273.116 25.3704C273.302 24.1667 273.465 22.9861 273.627 21.9213C272.605 18.75 272.837 16.6898 273.279 16.088C273.441 15.8565 273.674 15.7871 273.883 15.8796C274.301 16.088 274.533 16.9676 274.533 18.3797C274.533 19.3056 274.417 20.4861 274.254 21.8056C274.324 22.0371 274.417 22.2685 274.51 22.5232C275.346 24.7454 276.182 24.2593 276.461 24.0741C277.135 23.6806 277.785 22.5695 278.273 21.2963C278.087 18.4259 278.296 16.3658 278.621 15.7639C278.784 15.4398 278.993 15.4167 279.086 15.4167C279.411 15.4398 279.574 15.8796 279.62 16.0185C280.038 17.1296 279.667 19.4676 278.9 21.4584C279.133 24.8148 279.922 29.4213 281.874 34.2593L281.966 34.4676L281.85 34.6528C281.757 34.8148 279.597 38.6343 276.74 38.6806C276.717 38.75 276.693 38.75 276.67 38.75ZM274.045 23.1482C273.929 23.9121 273.813 24.6991 273.697 25.5093C273.093 29.5371 272.396 34.0741 273.093 35.2315C274.208 37.0602 275.416 37.9861 276.693 37.963C278.9 37.9167 280.735 35.1852 281.2 34.4445C279.504 30.1852 278.668 26.0185 278.343 22.6852C277.855 23.6574 277.274 24.4445 276.67 24.7917C276.113 25.1621 274.998 25.3935 274.045 23.1482ZM273.674 16.6667C273.511 16.9676 273.302 18.1945 273.79 20.3009C273.859 19.5834 273.906 18.9352 273.906 18.4028C273.906 17.3148 273.743 16.8287 273.674 16.6667ZM279.04 16.3889C278.9 16.8519 278.761 18.0093 278.784 19.6759C279.156 18.3334 279.295 17.0371 279.04 16.3889Z" fill="white"/>
<path d="M276.229 40.6944C273.349 40.6944 270.956 38.5185 270.724 35.6713L270.236 30.2083L271.7 30.7639C274.696 31.8981 277.995 31.875 280.968 30.6944L282.199 30.2083L281.712 35.6713C281.479 38.5185 279.087 40.6944 276.229 40.6944Z" fill="#F0932B"/>
<path d="M335.393 41.5047C333.721 45.463 328.332 49.2361 324.36 47.5695C320.387 45.9028 319.319 39.4445 320.991 35.463C322.664 31.5047 327.24 29.6297 331.235 31.2963C335.231 32.963 337.066 37.5232 335.393 41.5047Z" fill="#1855AB"/>
<path d="M323.198 50.9028C322.455 50.6019 321.99 49.7917 321.805 48.5185C321.665 47.6158 322.92 45.5787 324.244 43.4259C324.592 42.8704 324.917 42.3148 325.219 41.8056C325.382 40 325.939 39.0046 326.288 38.7963C326.427 38.7037 326.543 38.7269 326.636 38.8195C326.799 39.0046 326.729 39.5139 326.427 40.2083C326.241 40.6713 325.916 41.25 325.544 41.875C325.544 42.0139 325.521 42.1528 325.521 42.2917C325.475 43.588 325.986 43.5185 326.172 43.4954C326.59 43.4259 327.147 43.0093 327.682 42.4769C328.193 40.9954 328.75 40 329.029 39.7685C329.168 39.6528 329.284 39.6759 329.331 39.6991C329.493 39.7917 329.47 40.0232 329.47 40.1158C329.447 40.7639 328.75 41.8519 327.937 42.7083C327.333 44.4445 326.752 46.9213 326.729 49.7685V49.8843L326.636 49.9537C326.567 50.0232 324.662 51.4815 323.222 50.9028C323.222 50.9028 323.222 50.9028 323.198 50.9028ZM325.196 42.5C324.987 42.8704 324.755 43.2408 324.522 43.6111C323.361 45.5093 322.06 47.6621 322.153 48.3796C322.316 49.5371 322.734 50.2546 323.384 50.5093C324.499 50.9491 326.009 49.9537 326.404 49.6759C326.45 47.1759 326.915 44.9074 327.472 43.1482C327.031 43.5417 326.567 43.7963 326.195 43.8658C325.8 43.9352 325.196 43.8195 325.196 42.5ZM326.381 39.1435C326.241 39.2593 325.87 39.838 325.684 40.9954C325.87 40.6482 326.032 40.3241 326.148 40.0695C326.357 39.5371 326.404 39.2593 326.381 39.1435ZM329.145 40.1389C328.982 40.3472 328.657 40.9028 328.332 41.7361C328.797 41.1574 329.145 40.5324 329.145 40.1389Z" fill="white"/>
<path d="M322.571 51.7824C321.131 51.1806 320.387 49.5833 320.852 48.1019L321.781 45.2546L322.408 45.8333C323.663 47.037 325.335 47.7083 327.077 47.7546L327.797 47.7778L326.404 50.4167C325.683 51.8056 324.011 52.3843 322.571 51.7824Z" fill="#F0932B"/>
<path d="M279.713 64.1435C279.992 67.338 277.785 71.6898 274.58 71.9676C271.374 72.2454 268.401 68.3797 268.122 65.1852C267.843 61.9908 270.189 59.1667 273.395 58.8889C276.601 58.6111 279.411 60.9491 279.713 64.1435Z" fill="#1855AB"/>
<path d="M274.975 74.5602C274.371 74.6065 273.79 74.2593 273.233 73.4723C272.838 72.9167 272.931 71.1343 273.047 69.2593C273.07 68.7732 273.093 68.2871 273.117 67.8473C272.582 66.5973 272.605 65.7639 272.768 65.5093C272.838 65.4167 272.907 65.3704 273 65.3935C273.186 65.463 273.302 65.8102 273.349 66.3889C273.372 66.7593 273.372 67.2454 273.349 67.801C273.395 67.8935 273.442 67.9861 273.488 68.0787C273.906 68.9584 274.232 68.7269 274.324 68.6343C274.58 68.4491 274.812 67.9861 274.952 67.4537C274.766 66.2963 274.789 65.463 274.882 65.2084C274.928 65.0695 275.021 65.0463 275.068 65.0463C275.207 65.0463 275.277 65.2084 275.3 65.2778C275.509 65.7176 275.439 66.6667 275.207 67.5232C275.416 68.8658 275.904 70.7176 276.88 72.5926L276.926 72.6852L276.88 72.7778C276.856 72.8473 276.113 74.4676 274.952 74.6065C274.998 74.5602 274.998 74.5602 274.975 74.5602ZM273.349 68.3334C273.326 68.6343 273.302 68.9815 273.302 69.3056C273.209 70.9491 273.093 72.8241 273.419 73.2639C273.93 73.9584 274.464 74.3056 274.975 74.2361C275.858 74.1436 276.508 72.963 276.671 72.6389C275.834 70.9722 275.347 69.3056 275.068 67.963C274.905 68.3797 274.696 68.7037 274.464 68.8889C274.255 69.0741 273.813 69.213 273.349 68.3334ZM272.954 65.7176C272.884 65.8565 272.861 66.3658 273.14 67.176C273.14 66.875 273.14 66.6204 273.117 66.4121C273.07 65.9723 273 65.7871 272.954 65.7176ZM275.137 65.4167C275.091 65.6019 275.091 66.088 275.161 66.7593C275.254 66.2037 275.254 65.6713 275.137 65.4167Z" fill="white"/>
<path d="M274.882 75.3704C273.721 75.4861 272.675 74.6759 272.466 73.5417L272.071 71.3426L272.675 71.5046C273.93 71.8519 275.277 71.713 276.438 71.1343L276.926 70.8796V73.1019C276.926 74.3056 276.043 75.2778 274.882 75.3704Z" fill="#F0932B"/>
</g>
<defs>
<clipPath id="clip0_1118_842">
<rect width="406" height="250" fill="white"/>
</clipPath>
</defs>
</svg>
