<?xml version="1.0" standalone="no"?>
<!DOCTYPE svg PUBLIC "-//W3C//DTD SVG 20010904//EN"
 "http://www.w3.org/TR/2001/REC-SVG-20010904/DTD/svg10.dtd">
<svg version="1.0" xmlns="http://www.w3.org/2000/svg"
 width="233.000000pt" height="108.000000pt" viewBox="0 0 233.000000 108.000000"
 preserveAspectRatio="xMidYMid meet">

<g transform="translate(0.000000,108.000000) scale(0.100000,-0.100000)"
fill="#000000" stroke="none">
<path d="M461 1058 c-36 -94 -215 -516 -223 -525 -6 -7 -14 -13 -19 -13 -14 0
-11 484 3 498 7 7 27 12 45 12 23 0 33 5 33 15 0 13 -23 15 -151 15 -116 0
-150 -3 -147 -12 3 -7 20 -14 39 -16 19 -2 40 -8 46 -14 10 -8 13 -88 13 -339
0 -364 1 -359 -66 -359 -24 0 -34 -5 -34 -15 0 -13 38 -15 280 -15 l280 0 0
76 0 75 -27 -3 c-25 -3 -28 -8 -31 -45 -2 -27 -9 -44 -20 -48 -9 -4 -65 -9
-123 -12 -143 -8 -149 -4 -149 92 l0 75 65 0 c68 0 87 13 34 24 -28 5 -31 9
-24 33 4 16 16 49 27 76 l20 47 123 0 123 0 17 -42 c38 -94 36 -118 -7 -118
-10 0 -18 -4 -18 -10 0 -6 40 -10 100 -10 60 0 100 4 100 10 0 6 -6 10 -14 10
-27 0 -51 47 -156 303 -60 146 -110 257 -118 257 -7 0 -16 -10 -21 -22z m48
-214 c28 -67 51 -125 51 -128 0 -3 -47 -6 -105 -6 -58 0 -105 3 -105 7 0 10
103 254 106 251 1 -2 25 -58 53 -124z"/>
<path d="M632 993 c3 -65 4 -68 28 -68 22 0 26 5 30 45 l5 45 108 3 107 3 0
-340 c0 -326 -1 -341 -19 -351 -11 -5 -36 -10 -55 -10 -25 0 -36 -4 -36 -15 0
-13 25 -15 165 -15 140 0 165 2 165 15 0 11 -11 15 -39 15 -73 0 -71 -9 -71
366 l0 334 109 0 108 0 7 -50 c6 -45 9 -50 31 -50 24 0 25 2 25 70 l0 70 -335
0 -336 0 3 -67z"/>
<path d="M1632 1048 c3 -7 20 -15 39 -18 32 -5 40 -15 141 -182 l107 -177
-110 -163 c-114 -169 -130 -188 -161 -188 -16 0 -18 10 -18 85 0 77 -2 85 -19
85 -15 0 -21 -8 -23 -32 l-3 -33 -102 -3 -103 -3 0 156 0 156 127 -3 127 -3 9
-42 c7 -37 12 -43 33 -43 23 0 24 3 24 65 l0 65 -265 0 c-229 0 -265 -2 -265
-15 0 -11 11 -15 40 -15 29 0 42 -5 50 -19 6 -13 10 -138 10 -340 0 -355 1
-351 -66 -351 -24 0 -34 -5 -34 -15 0 -13 38 -15 280 -15 l280 0 0 71 0 70
-27 -3 c-24 -3 -29 -8 -33 -43 l-5 -40 -130 -3 c-113 -2 -131 0 -142 15 -9 12
-13 62 -13 165 l0 149 103 -3 102 -3 3 -27 c2 -16 9 -28 18 -28 8 0 14 -7 14
-15 0 -12 18 -15 105 -15 87 0 105 3 105 15 0 11 -11 15 -35 15 -23 0 -38 6
-42 16 -7 18 184 307 197 299 19 -12 172 -287 166 -300 -3 -9 -19 -15 -41 -15
-24 0 -35 -4 -35 -15 0 -13 22 -15 140 -15 115 0 140 3 140 14 0 8 -12 16 -27
18 -19 2 -36 15 -54 43 -44 65 -202 339 -202 350 0 11 171 254 206 293 11 12
31 22 44 22 14 0 23 6 23 15 0 12 -17 15 -95 15 -78 0 -95 -3 -95 -15 0 -10
10 -15 28 -15 42 0 45 -9 16 -58 -26 -43 -138 -209 -154 -225 -8 -10 -160 243
-160 267 0 12 10 16 40 16 29 0 40 4 40 15 0 13 -23 15 -151 15 -116 0 -150
-3 -147 -12z"/>
</g>
</svg>
