<svg width="24" height="24" viewBox="0 0 24 24" fill="none" xmlns="http://www.w3.org/2000/svg">
<path d="M7.5 7.5V1.75C7.5 1.55109 7.57902 1.36032 7.71967 1.21967C7.86032 1.07902 8.05109 1 8.25 1C8.44891 1 8.63968 1.07902 8.78033 1.21967C8.92098 1.36032 9 1.55109 9 1.75V7.5C9 7.63261 9.05268 7.75979 9.14645 7.85355C9.24021 7.94732 9.36739 8 9.5 8C9.63261 8 9.75979 7.94732 9.85355 7.85355C9.94732 7.75979 10 7.63261 10 7.5V2.5C10 2.30109 10.079 2.11032 10.2197 1.96967C10.3603 1.82902 10.5511 1.75 10.75 1.75C10.9489 1.75 11.1397 1.82902 11.2803 1.96967C11.421 2.11032 11.5 2.30109 11.5 2.5V8.25C11.5 8.271 11.5 8.292 11.497 8.313C11.93 8.15 12.471 7.996 13 7.996C13.5 7.996 13.927 8.121 14.244 8.281C14.401 8.359 14.546 8.455 14.665 8.563C14.724 8.616 14.791 8.686 14.85 8.773C14.896 8.843 15 9.013 15 9.25C15.0001 9.37716 14.9678 9.50224 14.9062 9.61349C14.8446 9.72475 14.7558 9.81852 14.648 9.886L12.741 11.078L11.083 12.968L9.706 14.866C9.45094 15.2172 9.11636 15.503 8.72965 15.7001C8.34293 15.8972 7.91505 16 7.481 16H6.342C5.87636 16.0039 5.41795 15.8847 5.01319 15.6545C4.60842 15.4243 4.27166 15.0912 4.037 14.689C3.67878 14.0723 3.35268 13.4374 3.06 12.787C2.774 12.136 2.5 11.374 2.5 10.75V3.75C2.5 3.55109 2.57902 3.36032 2.71967 3.21967C2.86032 3.07902 3.05109 3 3.25 3C3.44891 3 3.63968 3.07902 3.78033 3.21967C3.92098 3.36032 4 3.55109 4 3.75V7.998C4 8.13061 4.05268 8.25778 4.14645 8.35155C4.24021 8.44532 4.36739 8.498 4.5 8.498C4.63261 8.498 4.75979 8.44532 4.85355 8.35155C4.94732 8.25778 5 8.13061 5 7.998V2.5C5 2.30109 5.07902 2.11032 5.21967 1.96967C5.36032 1.82902 5.55109 1.75 5.75 1.75C5.94891 1.75 6.13968 1.82902 6.28033 1.96967C6.42098 2.11032 6.5 2.30109 6.5 2.5V7.5C6.5 7.63261 6.55268 7.75979 6.64645 7.85355C6.74021 7.94732 6.86739 8 7 8C7.13261 8 7.25979 7.94732 7.35355 7.85355C7.44732 7.75979 7.5 7.63261 7.5 7.5ZM15 22C13.4776 21.9999 11.9967 21.5036 10.7816 20.5864C9.56651 19.6692 8.68339 18.3811 8.266 16.917C9.17095 16.7233 9.97234 16.2019 10.516 15.453L11.866 13.593L13.396 11.847L15.177 10.734C15.689 10.414 16 9.854 16 9.25C15.9982 8.88123 15.8868 8.52132 15.68 8.216C15.6339 8.14775 15.5838 8.0823 15.53 8.02C17.3356 8.15679 19.018 8.98797 20.2238 10.339C21.4295 11.69 22.0648 13.4557 21.9962 15.2652C21.9276 17.0747 21.1604 18.7872 19.8559 20.0431C18.5513 21.2989 16.8108 22.0003 15 22ZM18 14C18 13.7348 17.8946 13.4804 17.7071 13.2929C17.5196 13.1054 17.2652 13 17 13C16.7348 13 16.4804 13.1054 16.2929 13.2929C16.1054 13.4804 16 13.7348 16 14C16 14.2652 16.1054 14.5196 16.2929 14.7071C16.4804 14.8946 16.7348 15 17 15C17.2652 15 17.5196 14.8946 17.7071 14.7071C17.8946 14.5196 18 14.2652 18 14ZM12.137 16.712C11.9939 16.85 11.9114 17.0391 11.9076 17.2379C11.9039 17.4366 11.9792 17.6287 12.117 17.772C12.4898 18.1607 12.9374 18.4698 13.4329 18.6809C13.9284 18.8919 14.4614 19.0005 15 19C15.5385 19.0006 16.0715 18.8922 16.567 18.6813C17.0625 18.4705 17.5101 18.1615 17.883 17.773C17.9513 17.702 18.0049 17.6183 18.0409 17.5266C18.0768 17.4349 18.0943 17.337 18.0924 17.2385C18.0905 17.14 18.0692 17.0429 18.0298 16.9526C17.9903 16.8624 17.9335 16.7808 17.8625 16.7125C17.7915 16.6442 17.7078 16.5906 17.6161 16.5546C17.5244 16.5187 17.4265 16.5012 17.328 16.5031C17.2295 16.505 17.1324 16.5263 17.0421 16.5657C16.9519 16.6052 16.8703 16.662 16.802 16.733C16.5691 16.976 16.2893 17.1693 15.9796 17.3011C15.6698 17.4329 15.3366 17.5006 15 17.5C14.6634 17.5006 14.3302 17.4329 14.0204 17.3011C13.7107 17.1693 13.4309 16.976 13.198 16.733C13.06 16.5899 12.8709 16.5074 12.6721 16.5036C12.4734 16.4999 12.2813 16.5752 12.138 16.713L12.137 16.712ZM14 14C14 13.7348 13.8946 13.4804 13.7071 13.2929C13.5196 13.1054 13.2652 13 13 13C12.7348 13 12.4804 13.1054 12.2929 13.2929C12.1054 13.4804 12 13.7348 12 14C12 14.2652 12.1054 14.5196 12.2929 14.7071C12.4804 14.8946 12.7348 15 13 15C13.2652 15 13.5196 14.8946 13.7071 14.7071C13.8946 14.5196 14 14.2652 14 14Z" fill="white"/>
</svg>
