<svg width="24" height="24" viewBox="0 0 24 24" fill="none" xmlns="http://www.w3.org/2000/svg">
<path d="M9.21415 2.35694C9.0648 2.35616 8.91612 2.37695 8.77272 2.41866C8.64082 2.20005 8.45382 2.01991 8.23045 1.89627C8.00707 1.77262 7.75514 1.7098 7.49986 1.71409C7.24434 1.70965 6.99214 1.77249 6.76858 1.89631C6.54501 2.02013 6.35795 2.20056 6.22615 2.41952C6.08304 2.37769 5.93467 2.35662 5.78557 2.35694C5.02272 2.35694 4.50757 2.86694 4.34215 3.45066C4.25265 3.43562 4.16204 3.42816 4.07129 3.42837C3.13529 3.42837 2.57129 4.19637 2.57129 4.92837V10.0712C2.57129 10.6061 2.80615 11.2592 3.05129 11.8172C3.30843 12.4035 3.62986 12.9958 3.88872 13.4475C4.08986 13.7923 4.37851 14.0778 4.72545 14.2751C5.07239 14.4724 5.46531 14.5746 5.86443 14.5712H7.26843C7.64062 14.5714 8.00754 14.4833 8.33918 14.3144C8.67081 14.1455 8.95772 13.9004 9.17643 13.5992L9.689 12.8921C10.1157 12.3043 10.6073 11.7666 11.1547 11.2892L11.9733 10.5761L13.4459 9.5218C13.5288 9.46234 13.5964 9.38398 13.6431 9.29321C13.6897 9.20243 13.7141 9.10186 13.7141 8.9998C13.7141 7.74152 12.773 6.85694 11.5747 6.85694C11.2805 6.85772 10.9884 6.90784 10.7107 7.00523V3.85694C10.7107 3.12837 10.1536 2.35694 9.21415 2.35694ZM7.28557 3.21237C7.28557 3.15837 7.30786 3.10094 7.34557 3.0598C7.37472 3.02809 7.41929 2.9998 7.49986 2.9998C7.58043 2.9998 7.625 3.02809 7.65415 3.0598C7.69209 3.10163 7.71343 3.1559 7.71415 3.21237V7.07123C7.71415 7.24173 7.78188 7.40524 7.90243 7.5258C8.02299 7.64636 8.18651 7.71409 8.357 7.71409C8.5275 7.71409 8.69101 7.64636 8.81157 7.5258C8.93213 7.40524 8.99986 7.24173 8.99986 7.07123V3.85694C8.99986 3.80037 9.023 3.74209 9.05986 3.70266C9.08815 3.67094 9.13272 3.64266 9.21415 3.64266C9.29472 3.64266 9.33757 3.67009 9.36586 3.7018C9.4036 3.74471 9.4246 3.7998 9.425 3.85694V8.13409C9.42504 8.25681 9.46021 8.37697 9.52635 8.48035C9.59249 8.58373 9.68684 8.66601 9.79826 8.71748C9.90967 8.76895 10.0335 8.78745 10.1551 8.7708C10.2767 8.75415 10.391 8.70304 10.4844 8.62352L10.5101 8.60123C10.6404 8.48552 11.0287 8.14352 11.5747 8.14352C11.9776 8.14352 12.2793 8.34923 12.3864 8.6998L11.2001 9.54837C11.1836 9.56049 11.1675 9.57336 11.1521 9.58694L10.3104 10.3207C9.68975 10.8618 9.13221 11.4714 8.64843 12.1378L8.13586 12.8432C8.03648 12.9802 7.90606 13.0917 7.75529 13.1686C7.60452 13.2455 7.43767 13.2855 7.26843 13.2855H5.86443C5.49586 13.2855 5.17186 13.1004 5.00386 12.8072C4.71958 12.3183 4.46066 11.8151 4.22815 11.2995C3.98557 10.7441 3.857 10.3112 3.857 10.0712V4.92837C3.8573 4.87131 3.87866 4.81636 3.917 4.77409C3.94615 4.74237 3.99072 4.71409 4.07129 4.71409C4.15186 4.71409 4.19643 4.74237 4.22557 4.77409C4.26391 4.81636 4.28528 4.87131 4.28557 4.92837V7.4998C4.28557 7.6703 4.3533 7.83381 4.47386 7.95437C4.59442 8.07493 4.75794 8.14266 4.92843 8.14266C5.09893 8.14266 5.26244 8.07493 5.383 7.95437C5.50356 7.83381 5.57129 7.6703 5.57129 7.4998V3.85694C5.57129 3.80037 5.59443 3.74209 5.63129 3.70266C5.65957 3.67094 5.70415 3.64266 5.78557 3.64266C5.816 3.64106 5.84642 3.64597 5.87479 3.65705C5.90317 3.66814 5.92886 3.68515 5.95015 3.70694C5.98186 3.74123 5.99643 3.78152 5.99986 3.81237V7.07123C5.99986 7.24173 6.06759 7.40524 6.18815 7.5258C6.30871 7.64636 6.47222 7.71409 6.64272 7.71409C6.81321 7.71409 6.97673 7.64636 7.09729 7.5258C7.21784 7.40524 7.28557 7.24173 7.28557 7.07123V3.86809C7.28645 3.83952 7.28645 3.81094 7.28557 3.78237V3.21237ZM14.9999 22.2855C13.1362 22.2854 11.3434 21.5711 9.99028 20.2896C8.63716 19.0081 7.82658 17.2567 7.72529 15.3958C8.17939 15.3306 8.61427 15.169 9.00072 14.9218V14.9998C9.0007 16.2048 9.36348 17.3818 10.0418 18.3777C10.7202 19.3736 11.6827 20.1421 12.804 20.5833C13.9253 21.0245 15.1534 21.1178 16.3285 20.8511C17.5036 20.5845 18.5712 19.9702 19.3922 19.0883C20.2133 18.2063 20.7498 17.0976 20.9318 15.9065C21.1139 14.7153 20.9331 13.497 20.413 12.4101C19.8929 11.3231 19.0575 10.418 18.0158 9.81247C16.974 9.20697 15.774 8.92916 14.5721 9.01523V8.9998C14.5721 8.5438 14.4804 8.12123 14.315 7.7458C15.2959 7.65399 16.2852 7.76204 17.2231 8.06344C18.161 8.36484 19.028 8.85332 19.7718 9.49935C20.5155 10.1454 21.1205 10.9355 21.5502 11.822C21.9799 12.7085 22.2253 13.673 22.2717 14.657C22.318 15.6411 22.1643 16.6243 21.8199 17.5473C21.4754 18.4702 20.9474 19.3137 20.2676 20.0268C19.5879 20.7399 18.7706 21.3077 17.8652 21.6959C16.9598 22.0842 15.985 22.2847 14.9999 22.2855ZM13.8213 13.7141C13.8213 13.9698 13.7197 14.2151 13.5389 14.3959C13.358 14.5768 13.1127 14.6784 12.857 14.6784C12.6013 14.6784 12.356 14.5768 12.1751 14.3959C11.9943 14.2151 11.8927 13.9698 11.8927 13.7141C11.8927 13.4583 11.9943 13.2131 12.1751 13.0322C12.356 12.8514 12.6013 12.7498 12.857 12.7498C13.1127 12.7498 13.358 12.8514 13.5389 13.0322C13.7197 13.2131 13.8213 13.4583 13.8213 13.7141ZM17.1427 14.6741C17.3976 14.6741 17.642 14.5729 17.8221 14.3927C18.0023 14.2125 18.1036 13.9681 18.1036 13.7132C18.1036 13.4584 18.0023 13.214 17.8221 13.0338C17.642 12.8536 17.3976 12.7524 17.1427 12.7524C16.8879 12.7524 16.6435 12.8536 16.4633 13.0338C16.2831 13.214 16.1819 13.4584 16.1819 13.7132C16.1819 13.9681 16.2831 14.2125 16.4633 14.3927C16.6435 14.5729 16.8879 14.6741 17.1427 14.6741ZM12.7079 16.9344C12.5978 16.8041 12.4406 16.7229 12.2707 16.7086C12.1008 16.6943 11.9321 16.7481 11.8019 16.8581C11.6716 16.9681 11.5904 17.1254 11.5761 17.2953C11.5618 17.4652 11.6155 17.6338 11.7256 17.7641C12.1274 18.2411 12.6287 18.6244 13.1943 18.8872C13.7599 19.15 14.3762 19.286 14.9999 19.2855C15.6235 19.2861 16.2397 19.1503 16.8053 18.8876C17.3709 18.6249 17.8722 18.2418 18.2741 17.7649C18.3316 17.7009 18.3756 17.626 18.4036 17.5447C18.4315 17.4633 18.4429 17.3772 18.437 17.2914C18.4311 17.2056 18.408 17.1218 18.3691 17.0451C18.3302 16.9684 18.2764 16.9002 18.2107 16.8447C18.145 16.7892 18.0688 16.7474 17.9867 16.7218C17.9046 16.6963 17.8182 16.6874 17.7326 16.6959C17.647 16.7043 17.5639 16.7299 17.4884 16.771C17.4128 16.8121 17.3463 16.8679 17.2927 16.9352C17.0115 17.2692 16.6606 17.5375 16.2647 17.7214C15.8687 17.9053 15.4373 18.0004 15.0007 17.9998C14.564 18.0005 14.1324 17.9055 13.7363 17.7216C13.3402 17.5377 12.9892 17.2684 12.7079 16.9344Z" fill="white"/>
</svg>
